<?xml version="1.0" encoding="UTF-8"?>
<svg xmlns="http://www.w3.org/2000/svg" version="1.1" viewBox="0 0 1000 382.6">
  <defs>
    <style>
      .cls-1 {
        fill: #ed64d0;
      }

      .cls-2 {
        fill: #65eadd;
      }

      .cls-3 {
        fill: #414146;
      }
    </style>
  </defs>
  <!-- Generator: Adobe Illustrator 28.6.0, SVG Export Plug-In . SVG Version: 1.2.0 Build 709)  -->
  <g>
    <g id="Layer_1">
      <g id="Layer_1-2" data-name="Layer_1">
        <g>
          <g>
            <path class="cls-3" d="M127.1,45.6C57.4,45.6,0,102.2,0,172.3s57.4,126.3,127.1,126.3,100.5-34.6,118.7-82.8l-118.7-43.5,120-39.3c-16.5-50.7-64.2-87.4-120-87.4Z"/>
            <path class="cls-3" d="M618.8,48.6H247.1v126.3c0,68.4,55.3,123.8,123.8,123.8s123.8-55.3,123.8-123.8v120.8h247.5v-123.3c0-68.4-55.3-123.8-123.3-123.8h-.1Z"/>
            <path class="cls-3" d="M935.1,151.2V48.6h-78.6V0h-114.5v168.9c0,72.6,54.1,126.7,120.4,126.7h72.6v-108.5h-63.4c-8.4,0-15.2-6.8-15.2-15.2v-20.7h78.7Z"/>
          </g>
          <path class="cls-2" d="M997.4,330.8c-1.7-1.7-3.5-2.5-5.4-2.5s-3.4.6-4.7,1.9c-5.3,5-11.6,8.9-18.9,11.8-7.3,2.9-14.5,4.4-21.7,4.4s-12.2-2.4-14.7-7.2c16.3-2.8,28.6-7.4,36.9-13.9,8.3-6.5,12.4-14.1,12.4-22.7s-2.3-15.2-6.9-19.8c-4.6-4.6-10.8-6.9-18.7-6.9-13.6,0-25.3,6.1-35.2,18.2-2.7,3.3-4.9,6.5-6.9,9.9-5.3,1.9-8.8,2.8-10.6,2.8-2.8,0-4.3-.5-4.3-1.4s1-2.7,3-7.4c2-4.8,3-9.1,3-12.9,0-6.1-4.6-9.1-13.8-9.1s-11,5.6-19.3,16.7-14.6,21.8-19,32.1c1.5-4,3.3-11.3,5.6-21.9s3.4-16.8,3.4-18.7-.9-3.8-2.6-5.6c-1.7-1.8-4-2.8-6.7-2.8-7,0-12.2,4.5-15.7,13.5-2,6.8-3.5,13.7-4.7,20.9-4.4,2.8-9.3,5.1-14.6,6.9.6-3.1.8-6.1.8-8.8,0-9.4-2.7-17.1-8.1-23.3-5.4-6.1-12.7-9.2-21.9-9.2-13.9,0-25.6,5.6-35,16.7-7.9,9.4-12.5,20.3-13.7,32.7-1.8,1-4,2.4-6.7,4.4-15,10.6-23.8,16-26.1,16s-3.6-1.1-3.6-3.3,1.3-5.1,3.9-10.5c8.8-18.2,14.1-30.1,15.8-35.9s2.6-8.9,2.6-9.5c0-3.5-1.6-6.2-4.8-8.1s-7.8-2.9-13.6-2.9-14.4,4.2-25.6,12.5c-11.2,8.4-20.3,19.5-27.3,33.4l7.7-32.8c22.9-17.4,39.4-33,49.3-46.7,9.9-13.7,15.8-26.7,17.6-39.2v-2.5c0-7-2-12.6-5.9-16.9-3.9-4.3-9.4-6.5-16.4-6.5-11.4,0-21.9,5.6-31.5,16.7-5.3,6.1-10,13.2-14.1,21.2-1.4.3-2.6.9-3.7,1.7-1.9,1.4-3.4,2.4-4.5,3.2-1.1.7-2.2,1.4-3.3,2.1-1.1.6-2.2,1.3-3.2,1.9-1,.6-2,1.2-3,1.8s-2,1.1-3,1.5c-1,.5-2,.9-2.9,1.4s-1.8.9-2.8,1.2c-1.8.7-3.6,1.4-5.2,1.9,1.5-7.9,2.2-15.5,2.2-22.8s-1.7-13.4-5.2-18.2-8-9-13.6-12.8-9.3-6.9-11.1-9.5c-13.4,0-23.7,3.6-30.8,10.9-7.2,7.3-10.7,16.1-10.7,26.4s3.1,19.9,9.4,28.5c6.2,8.6,14.8,14.6,25.6,17.9-8.4,22.2-19.1,43.2-31.9,63-6.4,9.7-13.7,18.9-21.9,27.4s-15.3,13.3-21.3,14.2h-1.1c-7.2,0-10.7-10.2-10.7-30.6v-5.5l.3-6.3c0-22.2,3.4-40.8,10.2-55.9,3.9-8.3,5.8-14.6,5.8-19s-1.1-7.8-3.2-10.3c-2.1-2.5-4.5-3.7-7.3-3.7h-1.7c-5.3,0-8.9,1.4-10.9,4.1-1.9,2.8-3.6,5.6-5.1,8.5-2.8,5.9-5.2,12.8-7.4,20.9-2,5-4.1,9.5-6.3,13.5-2.2,4-3.9,7.3-5.2,9.9-10.5,23.1-21.7,41.1-33.6,53.8-11.9,12.8-22.1,19.6-30.6,20.5h-1.1c-8.1,0-12.1-9.8-12.1-29.5s6.3-54.2,19-83.4c5.5-12.8,9.4-20.6,11.8-23.1.7-.9,1.1-2.5,1.1-4.7s-1.3-4.6-4-7.3-5.5-4-8.4-4c-5,0-9.4,1.7-13.2,5.2l-61.7,37.2c-4.2,2.4-6.3,5.7-6.3,9.9s.9,7.5,2.6,9.8,3.9,3.4,6.5,3.4,5.2-.8,8-2.5l29.7-18.4c-10.1,26.4-15.1,50.4-15.1,71.8,0,41.3,13.1,61.9,39.4,61.9h1.1c12.7-.4,25.1-6.2,37.4-17.6s23.8-26.4,34.4-45.1c.7,16.3,3.7,30.6,8.8,42.7,2.6,6.2,6.1,11.1,10.5,14.7s10.1,5.4,17.1,5.4,14.6-2.4,22.8-7.2c8.3-4.8,16.2-11.6,23.9-20.4,13-15.6,26.1-35,39.1-58.4,8.3-15.4,14.7-30.1,19.3-44,8.3-1.4,16.9-4.2,25.8-8.3-9.8,31-15.9,60.8-18.1,89.5-.6,6.6-.8,10.9-.8,12.9,0,13.2,3.7,19.8,11,19.8s6.4-.9,7.7-2.8c1.5-2.2,2.7-5.2,3.6-9.1,2.2-8.1,8.3-18.4,18.4-31.1,10.1-12.7,17.1-19,20.9-19s1.4.7,1.4,2.1-2.4,8-7.3,19.8c-4.9,11.8-7.3,20.6-7.3,26.3,0,10.5,6,15.7,17.9,15.7s15.4-1.8,24.2-5.5,16-8,21.5-12.9c.3-.2.5-.5.8-.7,1.6,3.2,3.7,6.1,6.2,8.7,6.7,6.8,15.3,10.2,25.7,10.2,18.2,0,31.3-10.6,39.4-31.9,5.7-1.9,10.8-3.9,15.5-6-.2,3.7-.3,7.4-.3,11.2v5.5c0,13,4.5,19.5,13.5,19.5s11.4-2.8,14.3-8.3c4.6-12.5,9-23.4,13.2-32.6,4.2-9.3,6.6-14.5,7.2-15.8-.4,1.8-.6,3.5-.6,5,0,9.2,6.6,13.8,19.7,13.8s5.9-.3,8.9-.8c0,1.3-.2,2.6-.2,3.8,0,12.8,3.9,22.2,11.6,27.9s17,8.7,27.9,8.7,21.2-2.6,31-7.7c9.7-5.1,16.9-11,21.5-17.6,1.7-2.2,2.5-4.4,2.5-6.5s-.9-4-2.6-5.6h-.3ZM601.4,231.7c-9.7-4.4-14.6-13.5-14.6-27.3s1.1-7.6,3.4-11.3c2.3-3.7,5.4-5.5,9.2-5.5s7.2,4.4,7.2,13.2-1.7,19.1-5.2,30.8h0ZM698.6,203.7c3.5,0,5.2,1.8,5.2,5.5,0,5.7-3.7,14.2-11.1,25.6-7.4,11.4-16.8,22.8-28.2,34.4,2.2-9.7,5.3-20.4,9.4-31.9,7.9-22.4,16.1-33.6,24.8-33.6h-.1ZM789.4,343.5c-2.9,3.3-7,5-12.1,5s-8.8-1.9-11.4-5.6c-2.7-3.8-4-9.1-4-16.1s2.3-13.8,6.9-20.5c4.6-6.7,10.6-10,18.2-10h.3l5,.8c-5.5,6.8-8.3,13.5-8.3,20.2s3.7,11.4,11,14.2c-.7,4.8-2.6,8.8-5.5,12.1h-.1ZM931.8,316.3c1.3-.9,2.5-1.8,3.8-2.8.6-.2.8-.7.8-1.7s-.3-1.8-.7-2.8c.6-.9,1.3-1.8,2.1-2.7,5.1-5.9,10.2-8.8,15.3-8.8s7.6,1.7,7.6,5.2-3.5,9-10.5,13.9-13.7,8.1-20.1,9.8c0-3.6.6-6.9,1.8-10.1h0Z"/>
          <path class="cls-1" d="M994.9,325.8c-1.7-1.7-3.5-2.5-5.4-2.5s-3.4.6-4.7,1.9c-5.3,5-11.6,8.9-18.9,11.8-7.3,2.9-14.5,4.4-21.7,4.4s-12.2-2.4-14.7-7.2c16.3-2.8,28.6-7.4,36.9-13.9,8.3-6.5,12.4-14.1,12.4-22.7s-2.3-15.2-6.9-19.8c-4.6-4.6-10.8-6.9-18.7-6.9-13.6,0-25.3,6.1-35.2,18.2-2.7,3.3-4.9,6.5-6.9,9.9-5.3,1.9-8.8,2.8-10.6,2.8-2.8,0-4.3-.5-4.3-1.4s1-2.7,3-7.4c2-4.8,3-9.1,3-12.9,0-6.1-4.6-9.1-13.8-9.1s-11,5.6-19.3,16.7-14.6,21.8-19,32.1c1.5-4,3.3-11.3,5.6-21.9s3.4-16.8,3.4-18.7-.9-3.8-2.6-5.6c-1.7-1.8-4-2.8-6.7-2.8-7,0-12.2,4.5-15.7,13.5-2,6.8-3.5,13.7-4.7,20.9-4.4,2.8-9.3,5.1-14.6,6.9.6-3.1.8-6.1.8-8.8,0-9.4-2.7-17.1-8.1-23.3-5.4-6.1-12.7-9.2-21.9-9.2-13.9,0-25.6,5.6-35,16.7-7.9,9.4-12.5,20.3-13.7,32.7-1.8,1-4,2.4-6.7,4.4-15,10.6-23.8,16-26.1,16s-3.6-1.1-3.6-3.3,1.3-5.1,3.9-10.5c8.8-18.2,14.1-30.1,15.8-35.9s2.6-8.9,2.6-9.5c0-3.5-1.6-6.2-4.8-8.1s-7.8-2.9-13.6-2.9-14.4,4.2-25.6,12.5c-11.2,8.4-20.3,19.5-27.3,33.4l7.7-32.8c22.9-17.4,39.4-33,49.3-46.7,9.9-13.7,15.8-26.7,17.6-39.2v-2.5c0-7-2-12.6-5.9-16.9-3.9-4.3-9.4-6.5-16.4-6.5-11.4,0-21.9,5.6-31.5,16.7-5.3,6.1-10,13.2-14.1,21.2-1.4.3-2.6.9-3.7,1.7-1.9,1.4-3.4,2.4-4.5,3.2-1.1.7-2.2,1.4-3.3,2.1-1.1.6-2.2,1.3-3.2,1.9-1,.6-2,1.2-3,1.8s-2,1.1-3,1.5c-1,.5-2,.9-2.9,1.4s-1.8.9-2.8,1.2c-1.8.7-3.6,1.4-5.2,1.9,1.5-7.9,2.2-15.5,2.2-22.8s-1.7-13.4-5.2-18.2-8-9-13.6-12.8-9.3-6.9-11.1-9.5c-13.4,0-23.7,3.6-30.8,10.9-7.2,7.3-10.7,16.1-10.7,26.4s3.1,19.9,9.4,28.5c6.2,8.6,14.8,14.6,25.6,17.9-8.4,22.2-19.1,43.2-31.9,63-6.4,9.7-13.7,18.9-21.9,27.4s-15.3,13.3-21.3,14.2h-1.1c-7.2,0-10.7-10.2-10.7-30.6v-5.5l.3-6.3c0-22.2,3.4-40.8,10.2-55.9,3.9-8.3,5.8-14.6,5.8-19s-1.1-7.8-3.2-10.3c-2.1-2.5-4.5-3.7-7.3-3.7h-1.7c-5.3,0-8.9,1.4-10.9,4.1-1.9,2.8-3.6,5.6-5.1,8.5-2.8,5.9-5.2,12.8-7.4,20.9-2,5-4.1,9.5-6.3,13.5-2.2,4-3.9,7.3-5.2,9.9-10.5,23.1-21.7,41.1-33.6,53.8-11.9,12.8-22.1,19.6-30.6,20.5h-1.1c-8.1,0-12.1-9.8-12.1-29.5s6.3-54.2,19-83.4c5.5-12.8,9.4-20.6,11.8-23.1.7-.9,1.1-2.5,1.1-4.7s-1.3-4.6-4-7.3-5.5-4-8.4-4c-5,0-9.4,1.7-13.2,5.2l-61.7,37.2c-4.2,2.4-6.3,5.7-6.3,9.9s.9,7.5,2.6,9.8,3.9,3.4,6.5,3.4,5.2-.8,8-2.5l29.7-18.4c-10.1,26.4-15.1,50.4-15.1,71.8,0,41.3,13.1,61.9,39.4,61.9h1.1c12.7-.4,25.1-6.2,37.4-17.6s23.8-26.4,34.4-45.1c.7,16.3,3.7,30.6,8.8,42.7,2.6,6.2,6.1,11.1,10.5,14.7s10.1,5.4,17.1,5.4,14.6-2.4,22.8-7.2c8.3-4.8,16.2-11.6,23.9-20.4,13-15.6,26.1-35,39.1-58.4,8.3-15.4,14.7-30.1,19.3-44,8.3-1.4,16.9-4.2,25.8-8.3-9.8,31-15.9,60.8-18.1,89.5-.6,6.6-.8,10.9-.8,12.9,0,13.2,3.7,19.8,11,19.8s6.4-.9,7.7-2.8c1.5-2.2,2.7-5.2,3.6-9.1,2.2-8.1,8.3-18.4,18.4-31.1,10.1-12.7,17.1-19,20.9-19s1.4.7,1.4,2.1-2.4,8-7.3,19.8c-4.9,11.8-7.3,20.6-7.3,26.3,0,10.5,6,15.7,17.9,15.7s15.4-1.8,24.2-5.5,16-8,21.5-12.9c.3-.2.5-.5.8-.7,1.6,3.2,3.7,6.1,6.2,8.7,6.7,6.8,15.3,10.2,25.7,10.2,18.2,0,31.3-10.6,39.4-31.9,5.7-1.9,10.8-3.9,15.5-6-.2,3.7-.3,7.4-.3,11.2v5.5c0,13,4.5,19.5,13.5,19.5s11.4-2.8,14.3-8.3c4.6-12.5,9-23.4,13.2-32.6,4.2-9.3,6.6-14.5,7.2-15.8-.4,1.8-.6,3.5-.6,5,0,9.2,6.6,13.8,19.7,13.8s5.9-.3,8.9-.8c0,1.3-.2,2.6-.2,3.8,0,12.8,3.9,22.2,11.6,27.9s17,8.7,27.9,8.7,21.2-2.6,31-7.7c9.7-5.1,16.9-11,21.5-17.6,1.7-2.2,2.5-4.4,2.5-6.5s-.9-4-2.6-5.6h-.3ZM598.9,226.8c-9.7-4.4-14.6-13.5-14.6-27.3s1.1-7.6,3.4-11.3c2.3-3.7,5.4-5.5,9.2-5.5s7.2,4.4,7.2,13.2-1.7,19.1-5.2,30.8h0ZM696.1,198.7c3.5,0,5.2,1.8,5.2,5.5,0,5.7-3.7,14.2-11.1,25.6-7.4,11.4-16.8,22.8-28.2,34.4,2.2-9.7,5.3-20.4,9.4-31.9,7.9-22.4,16.1-33.6,24.8-33.6h-.1ZM786.9,338.5c-2.9,3.3-7,5-12.1,5s-8.8-1.9-11.4-5.6c-2.7-3.8-4-9.1-4-16.1s2.3-13.8,6.9-20.5c4.6-6.7,10.6-10,18.2-10h.3l5,.8c-5.5,6.8-8.3,13.5-8.3,20.2s3.7,11.4,11,14.2c-.7,4.8-2.6,8.8-5.5,12.1h-.1ZM929.4,311.3c1.3-.9,2.5-1.8,3.8-2.8.6-.2.8-.7.8-1.7s-.3-1.8-.7-2.8c.6-.9,1.3-1.8,2.1-2.7,5.1-5.9,10.2-8.8,15.3-8.8s7.6,1.7,7.6,5.2-3.5,9-10.5,13.9-13.7,8.1-20.1,9.8c0-3.6.6-6.9,1.8-10.1h0Z"/>
        </g>
      </g>
    </g>
  </g>
</svg>