<svg xmlns="http://www.w3.org/2000/svg" version="1.1" xmlns:xlink="http://www.w3.org/1999/xlink" xmlns:svgjs="http://svgjs.com/svgjs" width="198.1" height="327.9"><svg xmlns="http://www.w3.org/2000/svg" xmlns:svg="http://www.w3.org/2000/svg" xmlns:sodipodi="http://sodipodi.sourceforge.net/DTD/sodipodi-0.dtd" xmlns:inkscape="http://www.inkscape.org/namespaces/inkscape" version="1.1" viewBox="0 0 198.1 327.9">
  <defs>
    <style>
      .cls-1 {
        fill: #ff788e;
      }

      .cls-2 {
        fill: #f24562;
      }

      .cls-3 {
        fill: #ffb9c4;
      }
    </style>
  </defs>
  <!-- Generator: Adobe Illustrator 28.6.0, SVG Export Plug-In . SVG Version: 1.2.0 Build 709)  -->
  <g>
    <g id="SvgjsG1006">
      <sodipodi:namedview id="SvgjsSodipodi:namedview1005" bordercolor="#666666" borderopacity="1.0" inkscape:current-layer="g1" inkscape:cx="62.367634" inkscape:cy="204.66491" inkscape:deskcolor="#d1d1d1" inkscape:pagecheckerboard="0" inkscape:pageopacity="0.0" inkscape:showpageshadow="2" inkscape:window-height="1351" inkscape:window-maximized="1" inkscape:window-width="2560" inkscape:window-x="-9" inkscape:window-y="-9" inkscape:zoom="2.2207031" pagecolor="#ffffff"></sodipodi:namedview>
      <g id="SvgjsG1004" inkscape:groupmode="layer" inkscape:label="Image">
        <path id="SvgjsPath1003" class="cls-3" d="M97.1,0c-30.4.1-24.5,40.7-70.7,89.1-72.4,75.8,22,239.4,70.5,238.8,46.8-.6,153.3-149,70.6-240.1C127.4,43.6,123.3,0,97.1,0Z" sodipodi:nodetypes="sssss"></path>
        <path id="SvgjsPath1002" class="cls-1" d="M97.8,28.3c-21.2-.4-21.3,36.1-42.7,74.5-37,66.5,13,204.6,42.2,204.5,30.5-.1,82.9-139.6,40.9-211.8-21-36.1-22-66.8-40.4-67.1Z" sodipodi:nodetypes="sssss"></path>
        <ellipse id="SvgjsEllipse1001" class="cls-2" cx="97.1" cy="205.6" rx="22.9" ry="77.1"></ellipse>
        <ellipse id="SvgjsEllipse1000" class="cls-2" cx="98.1" cy="64.5" rx="12.2" ry="20.5"></ellipse>
      </g>
    </g>
  </g>
</svg><style>@media (prefers-color-scheme: light) { :root { filter: none; } }
</style></svg>