<?xml version="1.0" standalone="no"?>
<!DOCTYPE svg PUBLIC "-//W3C//DTD SVG 20010904//EN"
 "http://www.w3.org/TR/2001/REC-SVG-20010904/DTD/svg10.dtd">
<svg version="1.0" xmlns="http://www.w3.org/2000/svg"
 width="1312.000000pt" height="1312.000000pt" viewBox="0 0 1312.000000 1312.000000"
 preserveAspectRatio="xMidYMid meet">
<metadata>
Created by potrace 1.14, written by Peter Selinger 2001-2017
</metadata>
<g transform="translate(0.000000,1312.000000) scale(0.100000,-0.100000)"
fill="#000000" stroke="none">
<path d="M6357 13114 c-2 -2 -23 -6 -48 -8 -24 -3 -69 -13 -99 -21 -30 -9 -59
-17 -65 -18 -29 -7 -151 -70 -203 -106 -62 -42 -189 -162 -232 -219 -14 -19
-30 -39 -35 -45 -44 -50 -181 -275 -247 -407 -24 -47 -45 -87 -48 -90 -3 -3
-50 -95 -104 -205 -54 -110 -105 -208 -114 -217 -8 -10 -12 -18 -9 -18 9 0
-94 -204 -107 -212 -6 -4 -8 -8 -4 -8 4 0 -5 -24 -21 -52 -15 -29 -50 -93 -76
-143 -27 -49 -59 -107 -72 -127 -12 -21 -23 -40 -23 -43 0 -6 -120 -211 -161
-275 -15 -25 -36 -58 -45 -75 -16 -29 -201 -310 -216 -330 -47 -58 -158 -218
-158 -225 0 -6 -4 -10 -8 -10 -5 0 -29 -28 -54 -62 -25 -35 -54 -73 -65 -84
-10 -12 -29 -36 -43 -54 -14 -18 -30 -38 -35 -44 -6 -6 -28 -33 -50 -61 -22
-27 -47 -56 -55 -65 -8 -9 -31 -34 -50 -56 -107 -122 -154 -175 -202 -225
-228 -238 -427 -496 -542 -703 -15 -26 -33 -55 -42 -63 -8 -8 -12 -18 -9 -23
3 -5 1 -11 -4 -14 -5 -4 -19 -27 -32 -54 -12 -26 -27 -50 -33 -54 -6 -4 -8 -8
-4 -8 5 0 -7 -28 -26 -63 -18 -35 -61 -135 -96 -223 -34 -87 -69 -173 -76
-190 -8 -17 -15 -40 -17 -50 -2 -11 -14 -50 -26 -89 -12 -38 -24 -77 -26 -85
-1 -8 -9 -35 -16 -60 -7 -25 -13 -47 -14 -50 -3 -13 -19 -86 -19 -90 -1 -3 -5
-11 -9 -17 -5 -7 -6 -13 -4 -13 3 0 0 -19 -5 -42 -5 -24 -12 -54 -14 -68 -4
-28 -16 -89 -19 -105 -5 -22 -25 -162 -27 -187 -1 -16 -5 -28 -8 -28 -5 0 -9
-59 -13 -167 -1 -24 -4 -43 -7 -43 -8 0 -14 -179 -14 -465 -1 -281 7 -455 29
-655 4 -30 8 -75 11 -100 3 -43 9 -83 19 -140 2 -14 7 -45 9 -70 7 -55 15
-107 22 -140 3 -14 8 -41 10 -60 5 -34 7 -48 18 -100 7 -28 25 -122 32 -160 2
-14 7 -36 11 -50 3 -14 7 -27 8 -30 0 -3 4 -21 8 -40 4 -19 10 -46 13 -60 3
-14 7 -36 10 -49 3 -13 8 -31 13 -40 4 -9 7 -23 6 -31 -1 -8 2 -22 6 -31 5 -9
10 -27 13 -40 12 -59 17 -77 32 -129 9 -30 19 -62 22 -70 3 -8 7 -24 9 -35 2
-11 7 -31 12 -45 5 -14 19 -59 31 -100 63 -212 216 -642 290 -817 6 -13 14
-33 19 -45 5 -13 19 -45 31 -72 12 -27 30 -69 40 -95 85 -215 308 -662 508
-1016 31 -55 60 -101 64 -103 4 -2 8 -7 8 -12 0 -7 41 -81 70 -125 8 -12 32
-52 53 -89 21 -36 43 -66 48 -66 5 0 9 -5 9 -10 0 -14 199 -314 211 -318 5 -2
9 -8 9 -14 0 -5 12 -26 27 -46 28 -36 35 -46 61 -77 7 -8 10 -15 7 -15 -3 0 3
-8 13 -18 26 -29 52 -62 48 -62 -3 0 4 -10 15 -22 10 -13 49 -61 86 -108 37
-47 70 -87 73 -90 3 -3 13 -14 21 -26 25 -37 169 -200 274 -312 77 -81 245
-248 285 -282 14 -12 43 -38 66 -58 22 -20 59 -53 83 -72 24 -19 48 -40 54
-45 41 -35 97 -75 106 -75 6 0 11 -4 11 -8 0 -9 184 -133 249 -168 19 -11 56
-31 83 -46 43 -23 174 -82 188 -84 3 0 17 -6 31 -12 32 -13 108 -35 129 -37 8
-1 26 -6 40 -10 77 -26 282 -27 401 -4 94 19 124 26 124 29 0 1 7 3 15 5 34 7
164 56 176 66 8 6 14 9 14 5 0 -3 57 24 128 60 70 37 137 72 149 78 13 6 23
14 23 19 0 4 5 7 10 7 12 0 233 145 270 178 8 7 38 29 65 50 28 20 61 46 74
57 181 152 214 181 289 252 30 29 56 53 58 53 9 0 312 317 380 397 27 32 56
65 64 73 28 30 115 133 130 154 8 12 23 30 33 41 10 11 37 45 60 75 23 30 48
62 57 71 8 9 40 51 70 93 30 42 58 76 62 76 4 0 8 7 8 15 0 8 5 15 10 15 6 0
10 4 10 10 0 8 42 70 79 116 5 6 26 37 47 70 22 32 47 68 57 78 9 11 17 26 17
33 0 7 5 13 10 13 6 0 10 4 10 9 0 6 43 76 100 161 5 8 25 40 43 70 148 244
178 297 176 306 0 4 3 10 8 13 6 3 24 33 42 66 18 33 38 66 43 72 6 7 8 13 4
13 -3 0 8 23 25 52 27 46 215 424 234 473 5 11 7 23 7 28 -1 4 2 7 8 7 5 0 10
5 10 11 0 5 10 34 23 62 13 29 43 99 67 157 23 58 50 123 60 145 9 22 29 74
44 115 15 41 31 82 35 90 5 9 12 31 16 50 4 19 11 40 15 45 7 10 80 226 105
315 7 25 24 83 38 130 27 93 83 310 91 350 2 14 7 32 10 40 3 8 7 26 10 40 2
14 9 45 15 70 9 43 14 66 26 143 3 17 8 39 10 47 5 18 16 86 20 120 1 14 5 39
9 55 3 17 8 48 11 70 3 22 7 51 10 65 3 14 8 52 10 85 3 33 7 78 10 100 34
264 39 811 10 1080 -3 28 -8 77 -11 110 -9 86 -13 120 -14 120 -1 0 -3 14 -5
30 -13 100 -32 205 -62 340 -8 38 -17 79 -19 90 -1 11 -10 45 -19 75 -9 30
-18 66 -21 80 -5 24 -60 209 -72 240 -3 8 -6 17 -6 20 -1 3 -4 10 -7 15 -4 6
-10 24 -14 40 -10 37 -9 34 -23 68 -7 16 -12 31 -12 35 -1 4 -9 25 -20 47 -11
22 -19 44 -20 48 0 5 -11 33 -25 63 -14 30 -25 57 -25 60 0 9 -170 348 -190
379 -11 17 -24 39 -29 51 -5 12 -26 46 -45 77 -20 31 -36 61 -36 67 0 5 -4 10
-10 10 -5 0 -10 7 -10 15 0 8 -4 15 -10 15 -5 0 -10 5 -10 12 0 6 -11 26 -25
44 -14 18 -25 36 -25 39 0 4 -6 13 -12 20 -30 33 -38 45 -38 55 0 5 -4 10 -10
10 -5 0 -10 7 -10 15 0 8 -3 15 -7 15 -5 0 -19 17 -33 38 -14 20 -27 39 -30
42 -3 3 -25 32 -50 65 -25 33 -49 65 -55 71 -5 6 -23 28 -40 48 -16 21 -39 47
-50 60 -20 22 -129 145 -173 195 -58 65 -264 313 -313 376 -30 38 -59 77 -66
85 -7 8 -33 44 -60 80 -26 36 -50 67 -53 70 -3 3 -9 12 -15 21 -23 38 -100
145 -117 163 -10 11 -18 25 -18 32 0 7 -3 14 -8 16 -6 2 -118 167 -159 233
-69 112 -138 221 -143 225 -9 9 -41 64 -47 83 -3 9 -9 17 -14 17 -5 0 -9 4 -9
10 0 5 -30 60 -68 122 -37 62 -74 127 -82 143 -8 17 -21 36 -27 43 -7 7 -13
17 -13 22 0 7 -57 110 -106 190 -8 14 -23 41 -32 60 -9 19 -20 37 -24 38 -5 2
-8 10 -8 18 0 8 -5 14 -11 14 -5 0 -8 4 -4 9 3 5 1 12 -4 15 -5 3 -20 28 -34
54 -14 26 -35 66 -48 88 -12 21 -32 57 -44 79 -12 22 -31 56 -43 75 -12 19
-25 42 -29 50 -3 8 -21 39 -40 68 -18 29 -33 54 -33 57 0 14 -233 364 -264
398 -13 14 -34 40 -47 59 -40 57 -202 213 -264 255 -177 119 -313 161 -521
161 -57 0 -105 -2 -107 -4z"/>
</g>
</svg>
